<svg xmlns="http://www.w3.org/2000/svg" viewBox="0 0 32 32">
  <defs>
    <style>
      .cls-1 {
        fill: #42393e;
      }
    </style>
  </defs>
  <path id="Edit" class="cls-1" d="M209.064,378.04a5.029,5.029,0,0,1-5.024-5.024V353.064a5.083,5.083,0,0,1,5.024-5.086H221.9a1,1,0,1,1,0,2.01H209.064a3.071,3.071,0,0,0-3.014,3.076v19.952a3.017,3.017,0,0,0,3.014,3.014h19.952a3.017,3.017,0,0,0,3.014-3.014V360.059a.943.943,0,0,1,.929-1.005,1,1,0,0,1,1,1.005v12.956a4.965,4.965,0,0,1-4.947,5.024Zm8.369-13.394a1,1,0,0,1,0-1.415l.97-.969a3.145,3.145,0,0,1,.593-3.623h0l12.3-12.306a1,1,0,0,1,1.414,0l3.031,3.03a1,1,0,0,1,0,1.415L223.44,363.083h0a3.145,3.145,0,0,1-3.622.592l-.97.97a1,1,0,0,1-1.415,0Zm4.593-2.976h0l11.6-11.6-1.616-1.616-11.6,11.6h0a1.14,1.14,0,0,0-.017,1.6l.019.018.016.016A1.17,1.17,0,0,0,222.026,361.669Z" transform="translate(-204.04 -346.04)"/>
</svg>
