<svg xmlns="http://www.w3.org/2000/svg" viewBox="0 0 32 31.999">
  <defs>
    <style>
      .cls-1 {
        fill: #42393e;
      }
    </style>
  </defs>
  <path id="News" class="cls-1" d="M126.941,378.051a5.006,5.006,0,0,1-5-5v-14a3,3,0,0,1,3-3h5v-7a3,3,0,0,1,3-3h18a3,3,0,0,1,3,3v24a5.006,5.006,0,0,1-5,5Zm22-2a3,3,0,0,0,3-3v-24a1,1,0,0,0-1-1h-18a1,1,0,0,0-1,1v24a4.973,4.973,0,0,1-1,3Zm-22,0a3,3,0,0,0,3-3v-15h-5a1,1,0,0,0-1,1v14A3,3,0,0,0,126.941,376.052Zm8-7a1,1,0,1,1,0-2h14a1,1,0,1,1,0,2Zm0-4a1,1,0,1,1,0-2h14a1,1,0,0,1,0,2Zm0-4a1,1,0,1,1,0-2h14a1,1,0,1,1,0,2Zm0-4a1,1,0,1,1,0-2h7a1,1,0,1,1,0,2Z" transform="translate(-121.941 -346.052)"/>
</svg>
