<svg xmlns="http://www.w3.org/2000/svg" viewBox="0 0 31.999 32">
  <defs>
    <style>
      .cls-1 {
        fill: #42393e;
      }
    </style>
  </defs>
  <path id="Analytics" class="cls-1" d="M307.274,295.71,303,291.97v1.012a1,1,0,0,1-2,0v-1.054l-4.3,3.783a1,1,0,0,1-1.408-1.421l5.7-5.022v-1.362H290.994A4.945,4.945,0,0,1,286,283.022V270.875a4.945,4.945,0,0,1,4.994-4.883H301V265a1,1,0,0,1,2,0v.992h10.005A4.945,4.945,0,0,1,318,270.875v12.147a4.945,4.945,0,0,1-4.994,4.883H303v1.41l5.679,4.973a1,1,0,1,1-1.408,1.421ZM288,270.875v12.147a2.944,2.944,0,0,0,2.994,2.884h22.011A2.943,2.943,0,0,0,316,283.022V270.875a2.98,2.98,0,0,0-2.994-2.884H290.994A2.944,2.944,0,0,0,288,270.875Zm4.344,11.936a1,1,0,0,1-.1-1.41l6.159-7.1a1,1,0,0,1,1.406-.1l5.1,4.37,5.334-6.25a1,1,0,1,1,1.522,1.3l-5.987,7.013a1,1,0,0,1-1.412.11l-5.1-4.375-5.507,6.348a1,1,0,0,1-1.411.1Z" transform="translate(-286 -264)"/>
</svg>
