<svg xmlns="http://www.w3.org/2000/svg" viewBox="0 0 24 32">
  <defs>
    <style>
      .cls-1 {
        fill: #42393e;
      }
    </style>
  </defs>
  <path id="User" class="cls-1" d="M130.226,131.924a4.137,4.137,0,0,1-3.288-1.516,4.406,4.406,0,0,1-.86-3.6l1.247-7.056q.006-.034.014-.067l0-.009,0-.009,0-.014,0-.006,0-.017v0l.006-.018,0-.005.005-.016,0-.009,0-.011.005-.013,0-.006a.984.984,0,0,1,.467-.519l5.655-2.9a6.471,6.471,0,0,1-2.029-4.706v-5a6.525,6.525,0,0,1,13.049,0v5a6.471,6.471,0,0,1-2.051,4.727l5.463,2.8a.99.99,0,0,1,.737.794l1.248,7.064a4.4,4.4,0,0,1-.861,3.6,4.136,4.136,0,0,1-3.288,1.516Zm-2.237-4.757a2.4,2.4,0,0,0,.441,1.96,2.251,2.251,0,0,0,1.8.8h15.547a2.248,2.248,0,0,0,1.8-.8,2.4,2.4,0,0,0,.441-1.96l-1.155-6.536-6.3-3.228a6.546,6.546,0,0,1-5.152-.014l-6.255,3.207Zm5.43-20.743v5a4.581,4.581,0,0,0,9.161,0v-5a4.581,4.581,0,0,0-9.161,0Z" transform="translate(-126 -99.923)"/>
</svg>
